<svg width="166" height="166" viewBox="0 0 166 166" fill="none" xmlns="http://www.w3.org/2000/svg">
<g clip-path="url(#clip0_8_6)">
<rect x="3" y="4" width="160" height="161" rx="45" fill="white"/>
<path d="M35.2087 3.30572C19.0232 4.12098 14.0431 5.88739 8.37125 13.0889C6.57286 15.5347 4.35946 20.0187 3.52943 23.008C1.86938 29.1225 1.31603 109.834 3.11442 109.018C3.66777 108.747 11.553 104.263 20.6833 98.8276C29.8136 93.5284 42.679 86.5987 49.1809 83.3376L56.4969 79.8282C58.9522 78.6504 59.8582 75.6131 58.4495 73.2827V73.2827C54.991 67.4399 53.331 54.9392 56.0977 54.9392C63.2913 55.0751 75.3267 64.5865 75.3267 70.0216C75.3267 71.5162 76.295 72.6033 77.4017 72.6033C79.0618 72.6033 79.4768 70.8369 79.4768 64.4506C79.4768 52.0858 75.3267 42.982 64.2597 31.2965C54.8527 21.2416 51.1176 15.6706 48.9042 8.46906C47.2441 2.76221 49.4575 3.84923 54.0227 10.9149C56.2361 14.3118 62.7379 21.1057 68.6865 25.8614C81.1368 36.0522 84.7336 42.3026 89.0221 62.1407C90.9588 71.3804 93.0339 77.0872 95.939 81.1636C100.227 87.1422 118.073 104.67 133.843 117.986C139.515 122.742 143.112 126.818 142.835 128.041C142.144 131.71 131.907 137.689 126.373 137.824C123.607 137.824 114.753 135.65 106.729 133.069C88.8838 127.226 79.3385 126.818 72.4216 131.438C68.9031 133.822 51.6576 155.018 47.3766 161.936C46.601 163.19 47.0994 164.15 48.5695 164.259C54.8943 164.728 74.4037 165 97.3224 165H140.357C145.579 165 150.681 163.438 155.009 160.516V160.516C167.598 152.228 167.321 153.858 167.736 86.5987C168.151 23.9591 167.875 20.1545 161.649 12.8171C154.041 3.9851 154.317 4.12098 99.5358 3.30572C72.1449 2.89808 43.2323 2.89808 35.2087 3.30572Z" fill="#FF0000"/>
<path d="M91.9271 93.2567C91.9271 96.6536 95.6622 101.138 98.429 101.138C100.781 101.138 98.9823 96.246 95.2472 92.849L94.4516 92.1327C93.4784 91.2564 91.9271 91.9471 91.9271 93.2567V93.2567Z" fill="#FF0000"/>
</g>
<defs>
<clipPath id="clip0_8_6">
<rect width="165.333" height="165.333" fill="white"/>
</clipPath>
</defs>
</svg>
